<svg id="Layer_1" data-name="Layer 1" xmlns="http://www.w3.org/2000/svg" viewBox="0 0 453.54 566.93"><defs><style>.cls-1{fill:#1d1d1b;}</style></defs><path class="cls-1" d="M193,275.2l-1.77-1.75,1.75-1.72a11.7,11.7,0,0,0-8.27-20,11.47,11.47,0,0,0-8.26,3.45l-1.41,1.4-.31.32-1.63-1.63a11.61,11.61,0,0,0-8.35-3.46,11.88,11.88,0,0,0-8.39,3.46l-1.61,1.61h0l-1.64-1.64a11.7,11.7,0,0,0-16.7,16.38l1.82,1.8-1.72,1.72a11.6,11.6,0,0,0,0,16.48l1.75,1.74-1.82,1.82a11.58,11.58,0,0,0,0,16.36l.17.17a11.61,11.61,0,0,0,16.38,0l1.82-1.79,1.29,1.3a12.28,12.28,0,0,0,17.3.05l1.34-1.35,1.71,1.7a11.73,11.73,0,0,0,16.56,0,11.73,11.73,0,0,0,3.41-8.26,11.57,11.57,0,0,0-3.41-8.27l-1.71-1.7,1.73-1.73A11.72,11.72,0,0,0,193,275.2ZM178.21,257a9.2,9.2,0,0,1,6.48-2.7,9.14,9.14,0,0,1,6.45,15.61l-1.7,1.74-1.82,1.77-2.93,3-1.81,1.82-3.44,3.41h0l-2.93-2.93,3.44-3.44,1.81-1.82,2.93-2.93,1.81-1.78,1.71-1.74a5,5,0,0,0,0-7.06,4.95,4.95,0,0,0-7,0l-1.71,1.74-3-3Zm-15.3,41.16-3.42,3.44-2.93-2.93,3.42-3.43,1.81-1.82,4.74-4.74,3.45-3.44,2.93,2.93-3.44,3.43-1.82,1.82-2.92,2.93Zm5.23,5.23-1.68,1.68a2.43,2.43,0,0,1-1.73.72,2.5,2.5,0,0,1-1.77-.72l-1.68-1.68,3.45-3.42Zm-21.6-25.22,3-2.93,3.42,3.44h0l1.79,1.81h0l2.93,2.93h0l1,1,.77.79h0l3.45,3.44-3,2.92-3.45-3.43h0l-1.78-1.81-2.93-2.94L150,281.64Zm1.64,5.25-3.42,3.45-1.69-1.68a2.54,2.54,0,0,1,0-3.56l1.66-1.65Zm16.55-12.93,1.8-1.78L170,265.3l2.93,2.93-3.44,3.44h0l-.75.75-1,1.06-3,2.93-1.82,1.82-3.42,3.43-3-3,3.45-3.44,1.81-1.82Zm0-3.59-3.44-3.44h0l1.78-1.78a2.25,2.25,0,0,1,1.67-.69,2.22,2.22,0,0,1,1.65.69l1.78,1.78-3.43,3.45Zm10,3.11,3.42,3.41-3.44,3.45L173,275.25l-1.76-1.77Zm-6.55,13.41-3.43,3.45-3.45-3.45,3.45-3.44Zm-13.43-6.55-3.44-3.45,3.44-3.44,3.43,3.44,0,0Zm3.43,16.55-3.4,3.44-3.47-3.47,3.43-3.41ZM174.7,290l3.43,3.41-3.44,3.45-3.43-3.42Zm1.8-1.81-1.79-1.81-2.92-2.94L170,281.64l-3.45-3.44,2.94-2.93,3.44,3.44,1.8,1.81h0l2.93,2.93h0l1.79,1.79v0h0l.92.91,2.52,2.5L180,291.61Zm4.75-4.75,3.41-3.44,1.77,1.76a2.36,2.36,0,0,1,.71,1.68,2.39,2.39,0,0,1-.71,1.71l-1.74,1.73L183,285.21Zm0-20,1.71-1.73a2.44,2.44,0,0,1,3.44,3.45l-1.71,1.73Zm-23.11-6.34a9.28,9.28,0,0,1,13.17,0l1.6,1.6,1.8,1.81,2.94,2.93,1.79,1.79v0l3.44,3.42L180,271.64l-3.42-3.41h0l-1.79-1.81-2.92-2.94-1.81-1.8-1.79-1.79a4.84,4.84,0,0,0-3.46-1.43,4.93,4.93,0,0,0-3.47,1.43l-1.79,1.79-2.94-2.94Zm-19.93-.06a9.27,9.27,0,0,1,13.08,0l1.65,1.66,1.82,1.81,2.93,2.93,1.78,1.82h0l3.42,3.42L160,271.65h0l-3.45-3.43-1.8-1.79-2.93-2.94-1.82-1.8-1.73-1.74a5,5,0,0,0-7,0,5,5,0,0,0-1.45,3.52,5,5,0,0,0,1.45,3.52l1.73,1.74L140,271.66l-1.8-1.8A9.05,9.05,0,0,1,138.21,257.08Zm10,6.4-3.44,3.45h0L143,265.2a2.44,2.44,0,0,1,0-3.45,2.41,2.41,0,0,1,3.44,0ZM138.28,277l1.73-1.71,1.81-1.81,2.94-3,1.8-1.78L150,265.3l2.91,2.91-3.45,3.43-1.78,1.81-4.77,4.75-1.66,1.66a5.07,5.07,0,0,0,0,7.14l1.68,1.67L140,291.61l-1.73-1.7A9.12,9.12,0,0,1,138.28,277ZM151.13,310a9,9,0,0,1-12.78,0l-.14-.15a9.05,9.05,0,0,1,0-12.78l1.8-1.78,1.81-1.82,2.94-2.93,1.78-1.82,3.44-3.4,2.94,2.93-3.42,3.43-1.81,1.79-2.93,2.94-1.82,1.8h0l-1.75,1.73a5,5,0,0,0,0,7,5.1,5.1,0,0,0,3.55,1.48,4.87,4.87,0,0,0,3.52-1.48l1.73-1.71,2.93,2.93Zm-2.93-6.53-1.74,1.73a2.43,2.43,0,0,1-3.44-3.44l1.74-1.73Zm23.33,6.1a9.66,9.66,0,0,1-13.67,0l-1.3-1.31h0l-1.77-1.8-2.94-2.94L150,301.61l-3.45-3.45,2.94-2.92,3.44,3.43,1.82,1.82,2.93,2.93,1.78,1.81,1.68,1.69a5.1,5.1,0,0,0,7.12,0l1.69-1.68,2.93,2.92Zm19.61.36a9.16,9.16,0,0,1-12.93,0l-1.68-1.7h0l-1.79-1.8-2.94-3L170,301.61l-3.41-3.41,2.93-2.93,5.22,5.22,3,3,1.79,1.81h0l1.68,1.68a5,5,0,0,0,3.52,1.46,5,5,0,0,0,3.55-1.46,5,5,0,0,0,1.45-3.52,5,5,0,0,0-1.45-3.54l-1.68-1.68h0l2.91-2.92,1.7,1.7A9.12,9.12,0,0,1,191.14,309.88Zm-9.89-6.43,3.46-3.45h0l1.68,1.68a2.41,2.41,0,0,1,0,3.45,2.41,2.41,0,0,1-3.44,0Zm9.91-13.54-1.72,1.72-1.79,1.82-2.94,2.93-1.8,1.81-3.45,3.44-3-3,3.45-3.43,1.81-1.82,2.93-2.93h0l.93-.91.88-.87,1.73-1.76a4.93,4.93,0,0,0,0-7l-1.75-1.76,3-2.93,1.72,1.73A9.14,9.14,0,0,1,191.16,289.91Z"/><polygon class="cls-1" points="234.93 276.23 241.78 276.23 241.78 294.45 245.68 294.45 245.68 276.23 252.52 276.23 252.52 274.27 234.93 274.27 234.93 276.23"/><path class="cls-1" d="M266.48,283.47l-1.46-.29c-.11,0-.23-.05-.38-.07l-.57-.13-.32-.06a3.93,3.93,0,0,1-.66-.24,3.89,3.89,0,0,1-.41-.17,3.21,3.21,0,0,1-2.09-3,2.11,2.11,0,0,1,0-.36,3.63,3.63,0,0,1,2-3,3.79,3.79,0,0,1,1.72-.4h.34a3.66,3.66,0,0,1,4,3.31l.12,1.2h4c.1-4-3.53-6.3-8.33-6.3s-7.95,1.94-7.76,5.84c.14,3.05,2.48,4.22,6,5l2.9.53c2.53.81,3.6,2.15,3.11,4.6-.28,1.53-1.45,2.83-3.78,2.86-2.68,0-4.45-1.12-4.8-3.37l-.1-1.76h-4v.16c0,5.1,3.76,7,8.79,7,4.77,0,8.56-1.61,8.14-6.31C272.59,285.31,269.94,284,266.48,283.47Z"/><path class="cls-1" d="M292.49,287.22c0,3.34-2,5.58-5,5.58s-5-2.24-5-5.58v-13h-3.93v11.25c0,5.63,3.49,9.27,8.9,9.27s8.89-3.64,8.89-9.27V274.27h-3.89Z"/><path class="cls-1" d="M315,287.17A6.37,6.37,0,0,0,319,281.1c0-4-3.23-6.82-7.87-6.82H303v20.17h3.92v-6.54h3.8l5,6.54h4.84ZM311,286h-4.12v-9.72H311c2.48,0,4.14,3,4.14,4.87S313.49,286,311,286Z"/><path class="cls-1" d="M225.62,274.79l-.21-.51H222l-8.93,20.17h2.65l1.73-4,.21-.49,5.25,3.14,5.23-3.12,2,4.44h4.2Zm-2.73,15.57-4.27-2.62,4.22-9.69,4.29,9.71Z"/><polygon class="cls-1" points="294.3 266.05 290.1 266.05 287.05 272.42 290.88 272.42 294.3 266.05"/></svg>