<svg width="136" height="48" viewBox="0 0 136 48" fill="none" xmlns="http://www.w3.org/2000/svg">
<g opacity="0.8">
<path d="M45.3993 17.7801L44.0588 16.4544L45.3842 15.1514C46.6303 13.913 47.4804 12.3321 47.8264 10.6095C48.1724 8.88693 47.9988 7.10035 47.3275 5.47666C46.6563 3.85297 45.5178 2.46546 44.0565 1.49035C42.5953 0.515247 40.8773 -0.00345792 39.1207 0.000118169C37.9561 -0.00595726 36.8021 0.222293 35.7274 0.671284C34.6527 1.12027 33.6792 1.78083 32.8649 2.6137L31.797 3.67428L31.5622 3.91671L30.3277 2.68189C29.5023 1.84425 28.5174 1.18069 27.4311 0.730469C26.3449 0.280248 25.1794 0.052506 24.0036 0.0607245C21.6222 0.0588828 19.3372 1.00147 17.6493 2.68189L16.4299 3.90157L15.1879 2.65917C13.5279 1.05162 11.3059 0.156167 8.99537 0.163673C6.68489 0.17118 4.46871 1.08105 2.81922 2.69935C1.16973 4.31764 0.217389 6.51636 0.165189 8.82685C0.112989 11.1373 0.96506 13.3768 2.53978 15.068L3.91819 16.4316L2.61551 17.7346C1.79115 18.5517 1.13678 19.524 0.690215 20.5954C0.243646 21.6668 0.0137292 22.8161 0.0137292 23.9769C0.0137292 25.1378 0.243646 26.2871 0.690215 27.3585C1.13678 28.4299 1.79115 29.4022 2.61551 30.2192L3.94091 31.5374L2.5625 32.9162C0.921584 34.5608 0 36.7895 0 39.113C0 41.4366 0.921584 43.6652 2.5625 45.3099L2.69125 45.4387C4.33906 47.0791 6.56928 48 8.89411 48C11.2189 48 13.4492 47.0791 15.097 45.4387L16.4754 44.0826L17.4524 45.0675C19.1895 46.8018 21.5415 47.7789 23.9958 47.786C26.4502 47.7931 28.8078 46.8296 30.5549 45.1053L31.5698 44.0826L32.8649 45.3705C34.53 47.0303 36.785 47.9623 39.1359 47.9623C41.4867 47.9623 43.7417 47.0303 45.4069 45.3705C47.0595 43.7072 47.9878 41.458 47.9895 39.113C47.9963 37.9495 47.7714 36.7964 47.328 35.7207C46.8846 34.6451 46.2315 33.6685 45.4069 32.848L44.1118 31.5601L45.422 30.2496C47.0573 28.5852 47.9717 26.3437 47.9674 24.0102C47.9632 21.6766 47.0406 19.4385 45.3993 17.7801ZM34.1978 3.99247C35.4992 2.68863 37.2637 1.95323 39.1056 1.94706C40.475 1.94794 41.8133 2.35505 42.9513 3.11689C44.0893 3.87873 44.9759 4.96107 45.4988 6.22699C46.0218 7.4929 46.1576 8.8855 45.8891 10.2286C45.6207 11.5718 44.96 12.8051 43.9906 13.7726L42.7031 15.0907L41.3247 16.4316L39.1056 18.7043L37.7347 20.0831L35.1294 22.6664L32.9103 20.4467L35.5157 17.8407L36.8865 16.4619L39.1056 14.2423L40.4764 12.8938L41.7715 11.5757C42.4791 10.8657 42.8765 9.90401 42.8765 8.90148C42.8765 7.89894 42.4791 6.93729 41.7715 6.22729C41.0685 5.52412 40.115 5.12909 39.1207 5.12909C38.1265 5.12909 37.173 5.52412 36.4699 6.22729L35.1748 7.54544L32.9027 5.27275L34.1978 3.99247ZM22.6101 35.1737L20.0199 37.7797L17.8008 35.5601L20.391 32.9616L21.7618 31.5829L25.3518 27.992L27.9647 25.386L30.1838 27.6057L27.5784 30.2041L26.2 31.5829L23.9885 33.8025L22.6101 35.1737ZM26.5711 39.1358L25.2987 40.4085C25.1273 40.5816 24.9232 40.7189 24.6983 40.8126C24.4734 40.9062 24.2321 40.9543 23.9885 40.9539C23.4871 40.9568 23.005 40.7607 22.6479 40.4085L21.3756 39.1358L23.9885 36.5449L26.5711 39.1358ZM10.2119 20.0301L12.484 17.8104L15.0743 20.4164L16.4299 21.7876L18.649 24.0073L19.4064 24.7648L19.9896 25.3633L22.6025 27.9693L20.3304 30.1814L17.7175 27.5829L16.3693 26.2117L14.1503 23.9845L12.8324 22.6588L10.2119 20.0301ZM11.454 24.0073L8.86381 26.6208L7.58387 25.3481C7.23048 24.9883 7.03247 24.5041 7.03247 23.9997C7.03247 23.4953 7.23048 23.011 7.58387 22.6512L8.84109 21.4012L11.454 24.0073ZM23.9885 14.212L25.3518 12.8635L27.9798 10.2802L30.1989 12.4999L27.5936 15.1059L27.0255 15.6741L26.2682 16.4771L23.9961 18.6967L22.6176 20.0755L20.0274 22.6739L17.7553 20.4013L20.3683 17.7952L21.7391 16.4165L23.9885 14.212ZM23.9885 11.4923L21.3831 8.88631L22.7313 7.53785C22.8945 7.36802 23.0912 7.2339 23.3089 7.14393C23.5266 7.05396 23.7606 7.01009 23.9961 7.01513C24.2292 7.01082 24.4607 7.05507 24.6758 7.14506C24.891 7.23505 25.085 7.36881 25.2457 7.53785L26.5938 8.88631L23.9961 11.4999L23.9885 11.4923ZM31.5622 13.8484L34.1524 16.4316L31.547 19.0452L30.2519 17.818L28.919 16.4771L31.5622 13.8484ZM26.6014 24.0073L24.0036 26.6208L21.3907 24.0073L24.0036 21.4012L26.6014 24.0073ZM16.4299 19.0452L13.8246 16.4316L16.4299 13.8256L19.0277 16.4316L16.4299 19.0452ZM19.0277 31.5829L16.4527 34.1889L13.8246 31.5601L16.4224 28.9769L19.0277 31.5829ZM31.5395 28.992L34.1372 31.5753L31.5319 34.1889L28.9341 31.598L31.5395 28.992ZM32.9027 27.6208L31.547 26.2496L29.3355 24.0224L27.9798 22.6588L25.3669 20.0528L27.5936 17.8331L30.1989 20.4391L31.5622 21.8103L33.7813 24.03L35.137 25.386L35.8337 26.0754L37.7423 27.9693L35.5535 30.2117L32.9027 27.6208ZM36.5002 24.0224L39.0829 21.4164L40.4234 22.7497C40.593 22.9155 40.7278 23.1135 40.8202 23.332C40.9125 23.5505 40.9604 23.7852 40.9611 24.0224C40.9622 24.2632 40.9151 24.5019 40.8228 24.7243C40.7304 24.9468 40.5947 25.1485 40.4234 25.3178L39.1056 26.6284L37.8256 25.3633L36.5002 24.0224ZM36.5002 8.87117L37.7953 7.56058C38.148 7.2471 38.6071 7.0804 39.0787 7.09462C39.5502 7.10884 39.9985 7.30289 40.3316 7.63706C40.6647 7.97122 40.8574 8.42017 40.8703 8.89188C40.8831 9.3636 40.7151 9.82237 40.4007 10.1742L39.1056 11.4848L36.5002 8.87117ZM18.9974 4.06823C19.6507 3.41017 20.4277 2.8879 21.2836 2.5315C22.1396 2.1751 23.0576 1.99162 23.9847 1.99162C24.9118 1.99162 25.8298 2.1751 26.6858 2.5315C27.5417 2.8879 28.3187 3.41017 28.972 4.06823L30.1838 5.28033L31.547 6.65152L33.7737 8.87117L35.1294 10.2272L37.7347 12.8181L35.5535 15.0832L32.9633 12.4999L31.6076 11.1287L29.3961 8.90148L28.0253 7.53785L26.6696 6.18183C26.3266 5.83625 25.9182 5.56246 25.4683 5.37646C25.0184 5.19046 24.5359 5.09597 24.0491 5.0985C23.0645 5.09891 22.12 5.48827 21.421 6.18183L20.0653 7.53785L17.8386 5.31062L18.9974 4.06823ZM3.90305 4.02278C5.21878 2.71267 6.99972 1.97715 8.85624 1.97715C10.7128 1.97715 12.4937 2.71267 13.8094 4.02278L15.0591 5.28033L16.4375 6.65152L18.6566 8.87117L20.0047 10.2499L22.5949 12.8408L20.4061 15.0907L17.7932 12.4923L16.4299 11.1363L14.2109 8.90904L12.8324 7.54544L11.5222 6.22729C10.8143 5.53326 9.86261 5.14451 8.87139 5.14451C7.88017 5.14451 6.92847 5.53326 6.2206 6.22729C5.51732 6.93654 5.12262 7.89495 5.12241 8.89389C5.12262 9.89284 5.51732 10.8513 6.2206 11.5605L7.53084 12.8787L5.25874 15.0983L3.89547 13.7347C2.61537 12.4485 1.89733 10.7072 1.89875 8.89232C1.90017 7.07747 2.62094 5.33722 3.90305 4.05306V4.02278ZM11.4767 8.87117L8.87139 11.4848L7.53084 10.2045C7.18444 9.85785 6.98984 9.3878 6.98984 8.89769C6.98984 8.40757 7.18444 7.93752 7.53084 7.59089C7.70076 7.41772 7.90347 7.28016 8.12714 7.18626C8.35081 7.09236 8.59095 7.04401 8.83352 7.04401C9.07609 7.04401 9.31623 7.09236 9.5399 7.18626C9.76357 7.28016 9.96629 7.41772 10.1362 7.59089L11.4767 8.87117ZM3.95606 19.1437L5.26631 17.8483L6.63715 16.4771L8.86381 14.2044L10.2271 12.8559L12.8324 10.2802L15.0364 12.4847L12.4235 15.0832L11.0753 16.4544L7.46268 20.0528L6.20545 21.3103C5.49227 22.0297 5.09211 23.0017 5.09211 24.0148C5.09211 25.0279 5.49227 26 6.20545 26.7193L7.47782 27.9845L5.25874 30.2117L3.94849 28.9238C3.30619 28.2816 2.7968 27.519 2.4495 26.6796C2.1022 25.8402 1.92381 24.9406 1.92451 24.0322C1.92521 23.1238 2.10501 22.2244 2.4536 21.3856C2.8022 20.5468 3.31276 19.7849 3.95606 19.1437ZM13.6883 44.1432C13.0546 44.7823 12.3007 45.2895 11.4701 45.6356C10.6394 45.9818 9.74851 46.16 8.84867 46.16C7.94884 46.16 7.0579 45.9818 6.22727 45.6356C5.39663 45.2895 4.64275 44.7823 4.00908 44.1432L3.90305 44.0296C2.62195 42.7444 1.90254 41.0036 1.90254 39.1888C1.90254 37.3739 2.62195 35.6331 3.90305 34.348L5.26631 32.9995L6.63715 31.6207L8.86381 29.4011L10.2119 28.0223L12.8173 25.4466L15.044 27.6663L12.4537 30.2647L11.0829 31.6207L8.86381 33.848L7.4854 35.2116L6.16001 36.5222C5.46616 37.2302 5.07751 38.1822 5.07751 39.1736C5.07751 40.1651 5.46616 41.117 6.16001 41.8251C6.8756 42.5355 7.84051 42.9379 8.84867 42.9463C9.34564 42.9487 9.83796 42.8506 10.2961 42.6579C10.7542 42.4653 11.1687 42.182 11.5146 41.8251L12.8249 40.5297L15.044 42.7493L13.6883 44.1432ZM11.4692 39.1964L10.1513 40.5069C9.80586 40.8525 9.33727 41.0467 8.84867 41.0467C8.36007 41.0467 7.89149 40.8525 7.546 40.5069C7.2005 40.1614 7.00641 39.6927 7.00641 39.2039C7.00641 38.7152 7.2005 38.2465 7.546 37.9009L8.86381 36.5903L11.4692 39.1964ZM29.1386 43.8175C28.4591 44.498 27.6522 45.0379 26.7639 45.4062C25.8757 45.7746 24.9235 45.9642 23.962 45.9642C23.0004 45.9642 22.0483 45.7746 21.16 45.4062C20.2718 45.0379 19.4648 44.498 18.7854 43.8175L17.8008 42.8251L16.4602 41.4615L14.2336 39.2342L12.8324 37.7873L10.2195 35.1737L12.4462 32.9616L15.0515 35.5601L16.4299 36.9388L18.649 39.1585L19.9972 40.5297L21.2695 41.8099C21.9909 42.5133 22.9584 42.907 23.9658 42.907C24.9731 42.907 25.9407 42.5133 26.662 41.8099L27.942 40.5372L30.1611 42.7493L29.1386 43.8175ZM43.9906 44.0902C42.6903 45.386 40.9297 46.1135 39.0942 46.1135C37.2588 46.1135 35.4981 45.386 34.1978 44.0902L32.9254 42.8024L31.5698 41.4387L29.3431 39.166L27.9798 37.7873L25.3972 35.204L27.6163 32.9843L31.5698 36.9388L33.8419 39.2115L35.1976 40.5827L36.4699 41.8554C37.1778 42.5616 38.1361 42.9592 39.1359 42.9614C39.6348 42.9633 40.1291 42.8666 40.5905 42.6768C41.052 42.487 41.4713 42.2078 41.8245 41.8554C42.5278 41.1461 42.9225 40.1877 42.9227 39.1888C42.9265 38.1846 42.5315 37.22 41.8245 36.507L40.5522 35.2343L42.7561 33.0222L44.0436 34.3101C45.3233 35.6116 46.036 37.3667 46.026 39.1921C46.0161 41.0175 45.2843 42.7648 43.9906 44.0523V44.0902ZM36.5002 39.2191L39.1207 36.6055L40.3931 37.8782C40.5674 38.0483 40.7059 38.2515 40.8004 38.4759C40.895 38.7004 40.9437 38.9414 40.9437 39.185C40.9437 39.4285 40.895 39.6696 40.8004 39.894C40.7059 40.1185 40.5674 40.3217 40.3931 40.4918C40.2232 40.6649 40.0205 40.8025 39.7968 40.8964C39.5731 40.9903 39.333 41.0387 39.0904 41.0387C38.8479 41.0387 38.6077 40.9903 38.3841 40.8964C38.1604 40.8025 37.9577 40.6649 37.7878 40.4918L36.5002 39.2191ZM44.0058 28.9617L42.7031 30.2647L41.3474 31.6435L39.1207 33.8631L37.7575 35.2343L35.1445 37.8403L32.8724 35.5676L35.4854 32.9692L36.8562 31.5904L39.0753 29.3708L39.7796 28.6814L40.4461 28.0223L41.7564 26.689C42.1063 26.3418 42.384 25.9288 42.5735 25.4737C42.763 25.0186 42.8606 24.5305 42.8606 24.0375C42.8606 23.5446 42.763 23.0565 42.5735 22.6014C42.384 22.1463 42.1063 21.7333 41.7564 21.3861L40.431 20.0528L42.7031 17.8331L44.0058 19.1437C45.3003 20.4417 46.0273 22.2003 46.0273 24.0337C46.0273 25.8672 45.3003 27.6258 44.0058 28.9238V28.9617Z" fill="black"/>
<path d="M72.2695 20.7846H77.3677V34.7172H80.2703V20.7846H85.361V19.2858H72.2695V20.7846Z" fill="black"/>
<path d="M95.7494 26.3207L94.6627 26.099C94.5809 26.099 94.4916 26.0607 94.3799 26.0454L93.9557 25.9461L93.7176 25.9002C93.5488 25.8542 93.3844 25.7928 93.2263 25.7166C93.1223 25.6793 93.0204 25.6359 92.9212 25.5867C92.4655 25.4123 92.0724 25.0993 91.7945 24.6894C91.5166 24.2795 91.367 23.7922 91.3657 23.2926C91.3581 23.201 91.3581 23.1089 91.3657 23.0173C91.3978 22.5348 91.5521 22.0693 91.8131 21.667C92.0742 21.2646 92.4331 20.9393 92.8542 20.7232C93.2515 20.5191 93.6901 20.4143 94.1343 20.4174H94.3874C94.7448 20.3816 95.1056 20.4187 95.449 20.5267C95.7924 20.6347 96.1116 20.8114 96.3883 21.0467C96.665 21.2819 96.8937 21.5711 97.0612 21.8974C97.2287 22.2238 97.3317 22.581 97.3644 22.9485L97.4537 23.8661H100.431C100.505 20.8074 97.8035 19.0486 94.2311 19.0486C90.6587 19.0486 88.3143 20.5321 88.4557 23.5143C88.5599 25.8466 90.3014 26.7413 92.9212 27.3378L95.0795 27.743C96.9625 28.3624 97.7589 29.3871 97.3942 31.2606C97.1858 32.4306 96.315 33.4247 94.5809 33.4476C92.5863 33.4476 91.2689 32.5912 91.0085 30.8706L90.934 29.5248H87.957V29.6471C87.957 33.547 90.7554 34.9999 94.499 34.9999C98.0491 34.9999 100.87 33.7688 100.557 30.1748C100.297 27.7278 98.3245 26.726 95.7494 26.3207Z" fill="black"/>
<path d="M115.108 29.1884C115.108 31.7425 113.619 33.4554 111.386 33.4554C109.154 33.4554 107.665 31.7425 107.665 29.1884V19.2475H104.74V27.8502C104.74 32.1554 107.338 34.9389 111.364 34.9389C115.391 34.9389 117.981 32.1554 117.981 27.8502V19.2858H115.085L115.108 29.1884Z" fill="black"/>
<path d="M131.862 29.1502C132.759 28.7808 133.526 28.1381 134.058 27.3085C134.59 26.4788 134.862 25.5018 134.839 24.5085C134.839 21.4498 132.435 19.2934 128.981 19.2934H122.931V34.7171H125.848V29.716H128.676L132.398 34.7171H136L131.862 29.1502ZM128.885 28.2555H125.818V20.8227H128.885C130.73 20.8227 131.966 23.1168 131.966 24.5467C131.966 25.9767 130.738 28.2555 128.885 28.2555Z" fill="black"/>
<path d="M65.3404 19.6835L65.1841 19.2935H62.6462L56 34.7172H57.9723L59.2598 31.6584L59.4161 31.2837L63.3235 33.6848L67.2159 31.299L68.7044 34.6942H71.8303L65.3404 19.6835ZM63.3086 31.5896L60.1306 29.5861L63.2714 22.1763L66.4642 29.6014L63.3086 31.5896Z" fill="black"/>
<path d="M116.455 13H113.33L111.06 17.8711H113.91L116.455 13Z" fill="black"/>
</g>
</svg>
