<svg id="Layer_1" data-name="Layer 1" xmlns="http://www.w3.org/2000/svg" viewBox="0 0 453.54 566.93"><defs><style>.cls-1{fill:#1d1d1b;}</style></defs><path class="cls-1" d="M262.69,273l-2.24-2.21,2.21-2.19a14.86,14.86,0,0,0-10.5-25.33,14.59,14.59,0,0,0-10.49,4.38l-1.78,1.78-.4.41-2.06-2.07a14.8,14.8,0,0,0-10.61-4.4,15.1,15.1,0,0,0-10.66,4.4l-2,2v0L212,247.7a14.85,14.85,0,0,0-21.21,20.8l2.31,2.29L191,273a14.74,14.74,0,0,0,0,20.94l2.21,2.21-2.31,2.31a14.71,14.71,0,0,0,0,20.78l.22.2a14.73,14.73,0,0,0,20.8,0l2.3-2.27,1.64,1.66a15.58,15.58,0,0,0,22,.06l1.7-1.72,2.18,2.16a14.9,14.9,0,0,0,21,0A14.85,14.85,0,0,0,267,308.81a14.67,14.67,0,0,0-4.34-10.5l-2.17-2.17,2.2-2.19A14.91,14.91,0,0,0,262.69,273ZM243.93,249.9a11.69,11.69,0,0,1,8.23-3.43,11.61,11.61,0,0,1,8.19,19.82l-2.16,2.21-2.31,2.25-3.72,3.76-2.29,2.31-4.38,4.32h0l-3.72-3.72,4.37-4.37,2.31-2.31,3.71-3.72,2.3-2.26,2.17-2.21a6.34,6.34,0,0,0-4.47-10.82,6.23,6.23,0,0,0-4.47,1.88l-2.16,2.21-3.76-3.75Zm-19.42,52.26-4.34,4.37-3.73-3.72,4.34-4.36,2.31-2.31,6-6,4.38-4.38,3.72,3.73-4.37,4.36-2.3,2.3-3.71,3.73Zm6.63,6.65L229,310.94a3.09,3.09,0,0,1-2.19.91,3.19,3.19,0,0,1-2.25-.91l-2.13-2.13,4.38-4.35Zm-27.42-32,3.75-3.73,4.35,4.37h0l2.27,2.29h0l3.72,3.73h0l1.29,1.31,1,1h0l4.37,4.38-3.76,3.71-4.37-4.36h0l-2.26-2.3-3.73-3.73-2.3-2.31Zm2.08,6.66-4.34,4.37-2.15-2.13a3.22,3.22,0,0,1,0-4.51l2.12-2.1Zm21-16.42,2.28-2.26,4.38-4.37,3.72,3.72-4.37,4.37h0l-.94,1-1.33,1.34-3.74,3.72-2.31,2.31-4.34,4.36-3.76-3.75,4.37-4.37,2.31-2.31Zm0-4.57-4.36-4.35v0l2.26-2.26a3,3,0,0,1,4.22,0l2.25,2.26-4.35,4.37Zm12.69,4,4.35,4.34-4.37,4.37-2.1-2.09-2.23-2.24Zm-8.32,17-4.35,4.37-4.38-4.37,4.38-4.37Zm-17-8.32-4.37-4.38,4.37-4.37,4.36,4.37v0Zm4.36,21-4.33,4.38-4.4-4.41,4.35-4.34Zm21-4.37,4.36,4.34-4.38,4.38-4.36-4.35Zm2.29-2.29-2.28-2.3-3.71-3.73-2.3-2.31-4.38-4.35,3.73-3.73,4.37,4.37,2.29,2.29h0l3.72,3.72h0l2.27,2.27v0h0l1.17,1.16,3.2,3.18-3.72,3.72Zm6-6,4.33-4.37,2.24,2.24a3,3,0,0,1,.9,2.13,3,3,0,0,1-.9,2.16l-2.21,2.21L250,285.68Zm0-25.36L250,255.9a3.09,3.09,0,1,1,4.38,4.37l-2.18,2.19Zm-29.35-8a11.78,11.78,0,0,1,16.72,0l2,2,2.29,2.28,3.73,3.73,2.27,2.27v0l4.38,4.34-3.73,3.71-4.34-4.33h0l-2.28-2.3-3.71-3.73-2.3-2.29-2.28-2.27a6.12,6.12,0,0,0-4.38-1.82,6.3,6.3,0,0,0-4.41,1.82l-2.27,2.27-3.73-3.72ZM193.14,250a11.77,11.77,0,0,1,16.61,0l2.1,2.12,2.3,2.28,3.73,3.73,2.26,2.31h0l4.34,4.34-3.71,3.72h0l-4.37-4.36-2.29-2.27-3.73-3.73-2.3-2.29-2.2-2.21a6.31,6.31,0,0,0-8.93,0,6.43,6.43,0,0,0-1.85,4.47,6.29,6.29,0,0,0,1.85,4.47l2.19,2.21-3.72,3.74-2.29-2.29A11.5,11.5,0,0,1,193.14,250Zm12.69,8.13-4.37,4.37h0l-2.19-2.19a3.1,3.1,0,0,1,0-4.37,3.05,3.05,0,0,1,4.37,0Zm-12.6,17.16,2.2-2.16,2.3-2.3,3.73-3.76,2.29-2.26,4.37-4.37,3.7,3.69-4.38,4.36-2.26,2.3-6.06,6-2.1,2.1a6.43,6.43,0,0,0,0,9.06l2.13,2.13-3.72,3.73-2.2-2.17A11.58,11.58,0,0,1,193.23,275.25Zm16.31,41.85a11.46,11.46,0,0,1-16.21,0l-.19-.19a11.52,11.52,0,0,1,0-16.24l2.29-2.25,2.3-2.31,3.73-3.72,2.26-2.31,4.37-4.33,3.73,3.73-4.35,4.36-2.29,2.27-3.72,3.73-2.31,2.29h0l-2.21,2.2a6.31,6.31,0,0,0,0,8.93,6.4,6.4,0,0,0,4.5,1.88,6.21,6.21,0,0,0,4.47-1.88l2.19-2.17,3.73,3.72Zm-3.71-8.29L203.62,311a3.05,3.05,0,0,1-4.37,0,3.1,3.1,0,0,1,0-4.37l2.21-2.2Zm29.62,7.73a12.25,12.25,0,0,1-17.35-.06l-1.66-1.66h0l-2.26-2.29-3.72-3.72-2.31-2.31-4.37-4.37,3.72-3.71,4.38,4.35,2.3,2.31,3.73,3.73,2.26,2.29,2.13,2.14a6.46,6.46,0,0,0,9,0l2.14-2.13,3.71,3.71Zm24.9.46a11.61,11.61,0,0,1-16.42,0l-2.13-2.15h0l-2.28-2.29-3.74-3.75-2.3-2.31-4.33-4.33,3.71-3.72,6.63,6.63,3.76,3.76,2.27,2.3h0l2.13,2.13a6.27,6.27,0,0,0,4.47,1.85,6.34,6.34,0,0,0,4.5-10.81l-2.14-2.14h0l3.7-3.71,2.16,2.16A11.58,11.58,0,0,1,260.35,317Zm-12.55-8.16,4.39-4.38h0l2.14,2.14a3,3,0,0,1,0,4.37,3.07,3.07,0,0,1-4.38,0Zm12.58-17.2-2.19,2.2-2.28,2.3-3.72,3.73-2.29,2.29-4.37,4.37-3.76-3.76,4.37-4.35,2.31-2.31,3.71-3.72h0l1.18-1.16,1.12-1.1,2.2-2.24a6.26,6.26,0,0,0,0-8.88l-2.23-2.22,3.76-3.73,2.19,2.19A11.61,11.61,0,0,1,260.38,291.64Z"/></svg>