<svg width="310" height="332" viewBox="0 0 310 332" fill="none" xmlns="http://www.w3.org/2000/svg">
<path d="M164.194 331.184C158.337 331.195 152.505 330.434 146.849 328.92C116.67 320.8 96.97 292.897 80.872 267.376C61.4112 236.522 42.6467 204.664 25.1028 172.721C8.04965 141.648 -6.3437 108.629 3.73164 77.6294C10.1921 57.7662 26.5421 40.5633 49.7771 29.1959C70.339 19.1223 93.1097 14.7721 115.104 10.5605C143.593 5.10787 173.049 -0.529611 202.658 1.31874C235.863 3.37834 264.278 15.2804 282.657 34.8334C305.209 58.8158 314.409 96.8853 307.279 136.684L306.058 136.466L307.279 136.684C303.372 158.469 294.517 178.431 285.947 197.726C281.271 208.255 276.436 219.141 272.436 230.244C260.915 262.254 246.522 285.655 227.14 303.888C212.031 318.114 188.849 331.184 164.194 331.184ZM190.991 3.42459C165.547 3.42459 140.196 8.27652 115.575 12.9898C93.7398 17.1684 71.135 21.4856 50.8715 31.4139C37.7649 37.8237 14.5233 52.4522 6.09295 78.3885C-3.70382 108.504 10.4905 140.955 27.2784 171.539C44.7958 203.45 63.5337 235.254 82.9945 266.063C98.8405 291.18 118.202 318.642 147.519 326.53C177.327 334.544 207.328 319.157 225.469 302.105C244.558 284.15 258.746 261.052 270.135 229.426C274.161 218.243 279.016 207.318 283.705 196.743C292.215 177.599 301.017 157.795 304.871 136.268C311.862 97.2352 302.881 59.9512 280.88 36.5365C262.911 17.4192 235.086 5.78121 202.492 3.80083C198.672 3.53678 194.832 3.42459 190.998 3.42459H190.991Z" fill="white"/>
</svg>
